# xmcd
#
# Track frame offsets: 
#        150
#        16520
#        36907
#        54996
#        71116
#        85890
#        108267
#        120127
#        137604
#        150712
#        168791
#        198116
#        210219
#        227547
#
# Disc length: 3243 seconds
#
# Revision: 0
# Processed by: cddbd v1.5.1PL2 Copyright (c) Steve Scherf et al.
# Submitted via: ExactAudioCopy v0.95b3
#
DISCID=9c0ca90e
DTITLE=hound dog taylor - hound dog taylor and the houserockers
DYEAR=1900
DGENRE=Blues
TTITLE0=Wild About You Baby  James
TTITLE1=The Sun Is Shining  James
TTITLE2=Roll Your Moneymaker  Taylor
TTITLE3=Give Me Back My Wig  Taylor
TTITLE4=Walking the Ceiling  Taylor
TTITLE5=See Me in the Evening  Taylor
TTITLE6=Phillips Goes Bananas  Phillips
TTITLE7=It Hurts Me Too  Whittaker
TTITLE8=What'd I Say  Charles
TTITLE9=Rock Me Broonzy, Crudup
TTITLE10=phillips' Theme [live/#]  Taylor
TTITLE11=Take Five  Taylor
TTITLE12=She's Gone  Taylor
TTITLE13=Ain't Got Nobody  Taylor
EXTD=
EXTT0=
EXTT1=
EXTT2=
EXTT3=
EXTT4=
EXTT5=
EXTT6=
EXTT7=
EXTT8=
EXTT9=
EXTT10=
EXTT11=
EXTT12=
EXTT13=
PLAYORDER=
